<svg width="63" height="63" viewBox="0 0 63 63" fill="none" xmlns="http://www.w3.org/2000/svg">
<g id="confirmation">
<g id="Vector">
<path d="M31.5 0C39.8543 0 47.8665 3.31874 53.7739 9.22614C59.6813 15.1335 63 23.1457 63 31.5C63 39.8543 59.6813 47.8665 53.7739 53.7739C47.8665 59.6813 39.8543 63 31.5 63C23.1457 63 15.1335 59.6813 9.22614 53.7739C3.31874 47.8665 0 39.8543 0 31.5C0 23.1457 3.31874 15.1335 9.22614 9.22614C15.1335 3.31874 23.1457 0 31.5 0ZM27.576 37.7145L20.5785 30.7125C20.3276 30.4616 20.0298 30.2626 19.7021 30.1269C19.3743 29.9911 19.023 29.9212 18.6682 29.9212C18.3135 29.9212 17.9622 29.9911 17.6344 30.1269C17.3067 30.2626 17.0089 30.4616 16.758 30.7125C16.2514 31.2191 15.9667 31.9063 15.9667 32.6227C15.9667 33.3392 16.2514 34.0264 16.758 34.533L25.668 43.443C25.9181 43.6951 26.2157 43.8952 26.5436 44.0318C26.8714 44.1683 27.2231 44.2386 27.5783 44.2386C27.9334 44.2386 28.2851 44.1683 28.6129 44.0318C28.9408 43.8952 29.2383 43.6951 29.4885 43.443L47.9385 24.9885C48.1927 24.7387 48.3949 24.441 48.5335 24.1126C48.6721 23.7843 48.7443 23.4317 48.746 23.0753C48.7476 22.7189 48.6787 22.3657 48.5432 22.036C48.4077 21.7064 48.2082 21.4069 47.9563 21.1547C47.7045 20.9025 47.4051 20.7027 47.0757 20.5668C46.7462 20.4309 46.3931 20.3615 46.0366 20.3628C45.6802 20.364 45.3276 20.4358 44.9991 20.574C44.6705 20.7122 44.3726 20.9141 44.1225 21.168L27.576 37.7145Z" fill="#E1EFE6"/>
<path d="M27.576 37.7145L20.5785 30.7125C20.3276 30.4616 20.0298 30.2626 19.7021 30.1269C19.3743 29.9911 19.023 29.9212 18.6682 29.9212C18.3135 29.9212 17.9622 29.9911 17.6344 30.1269C17.3067 30.2626 17.0089 30.4616 16.758 30.7125C16.2514 31.2191 15.9667 31.9063 15.9667 32.6227C15.9667 33.3392 16.2514 34.0264 16.758 34.533L25.668 43.443C25.9181 43.6951 26.2157 43.8952 26.5436 44.0318C26.8714 44.1683 27.2231 44.2386 27.5783 44.2386C27.9334 44.2386 28.2851 44.1683 28.6129 44.0318C28.9408 43.8952 29.2383 43.6951 29.4885 43.443L47.9385 24.9885C48.1927 24.7387 48.3949 24.441 48.5335 24.1126C48.6721 23.7843 48.7443 23.4317 48.746 23.0753C48.7476 22.7189 48.6787 22.3657 48.5432 22.036C48.4077 21.7064 48.2082 21.4069 47.9563 21.1547C47.7045 20.9025 47.4051 20.7027 47.0757 20.5668C46.7462 20.4309 46.3931 20.3615 46.0366 20.3628C45.6802 20.364 45.3276 20.4358 44.9991 20.574C44.6705 20.7122 44.3726 20.9141 44.1225 21.168L27.576 37.7145Z" fill="#07745E"/>
</g>
</g>
</svg>
