<svg width="20" height="20" viewBox="0 0 20 20" fill="none" xmlns="http://www.w3.org/2000/svg">
<g id="20/ file">
<path id="Vector" d="M15.6034 6.33333H12.9416C12.9416 6.33333 12.9138 6.27879 12.9138 5.64583C12.9138 5.01288 12.4122 4.5 11.7931 4.5H8.2069C7.58783 4.5 7.08621 5.01288 7.08621 5.64583C7.08621 6.27879 7.114 6.33333 7.114 6.33333H4.39655C3.90166 6.33333 3.5 6.744 3.5 7.25V14.5833C3.5 15.0893 3.90166 15.5 4.39655 15.5H15.6034C16.0983 15.5 16.5 15.0893 16.5 14.5833V7.25C16.5 6.744 16.0983 6.33333 15.6034 6.33333ZM10.0202 13.6543C8.53459 13.6543 7.33052 12.4232 7.33052 10.9043C7.33052 9.38538 8.53459 8.15429 10.0202 8.15429C11.5053 8.15429 12.7098 9.38538 12.7098 10.9043C12.7098 12.4232 11.5053 13.6543 10.0202 13.6543Z" fill="#088269"/>
</g>
</svg>
