<svg width="24" height="24" viewBox="0 0 24 24" fill="none" xmlns="http://www.w3.org/2000/svg">
<g id="24/ arrow / left">
<path id="Vector" d="M18.8438 11.9999C18.8438 11.6636 18.607 11.3857 18.2998 11.3417L18.2144 11.3357L7.15088 11.3362L11.1478 7.13496C11.3941 6.87612 11.395 6.45553 11.1497 6.19557C10.9268 5.95924 10.5771 5.937 10.3304 6.12939L10.2596 6.19355L5.18273 11.5288C5.15026 11.563 5.12206 11.5999 5.09812 11.6389C5.09136 11.6506 5.08448 11.6626 5.07796 11.6749C5.07196 11.6854 5.06653 11.6963 5.06142 11.7073C5.05431 11.7234 5.04737 11.7399 5.04107 11.7568C5.03595 11.7699 5.03167 11.7825 5.02777 11.7953C5.02313 11.8112 5.01863 11.8281 5.01475 11.8452C5.01187 11.8572 5.00959 11.8687 5.0076 11.8803C5.0048 11.8975 5.00242 11.9153 5.00072 11.9333C4.99925 11.9471 4.99837 11.9607 4.99788 11.9743C4.99775 11.9826 4.9976 11.9912 4.9976 11.9999L4.99791 12.0256C4.99839 12.0387 4.99924 12.0517 5.00044 12.0647L4.9976 11.9999C4.9976 12.0418 5.00128 12.0828 5.00831 12.1226C5.00994 12.1321 5.01189 12.1419 5.01404 12.1516C5.01851 12.1716 5.02368 12.1908 5.02962 12.2097C5.03255 12.2191 5.03595 12.2291 5.03958 12.239C5.04694 12.259 5.05493 12.2781 5.06373 12.2966C5.06781 12.3054 5.07239 12.3145 5.07718 12.3235C5.08504 12.3383 5.09315 12.3523 5.10171 12.366C5.10776 12.3757 5.11445 12.3857 5.12144 12.3956L5.12689 12.4033C5.14384 12.4267 5.16224 12.4488 5.18193 12.4696L5.18269 12.4702L10.2596 17.8064C10.5059 18.0653 10.9044 18.0644 11.1497 17.8045C11.3727 17.5682 11.3922 17.1991 11.2089 16.9394L11.1478 16.8651L7.15256 12.6647L18.2144 12.6642C18.562 12.6642 18.8438 12.3668 18.8438 11.9999Z" fill="#D5D1E1"/>
</g>
</svg>
