<svg width="13" height="14" viewBox="0 0 13 14" fill="none" xmlns="http://www.w3.org/2000/svg">
<g id="13/ mark">
<path id="Vector" d="M5.4179 7.86628L8.61374 4.67044C8.71304 4.57114 8.83943 4.52148 8.9929 4.52148C9.14638 4.52148 9.27276 4.57114 9.37207 4.67044C9.47138 4.76975 9.52103 4.89614 9.52103 5.04961C9.52103 5.20308 9.47138 5.32947 9.37207 5.42878L5.79707 9.00378C5.68874 9.11211 5.56235 9.16628 5.4179 9.16628C5.27346 9.16628 5.14707 9.11211 5.03874 9.00378L3.6304 7.59544C3.5311 7.49614 3.48145 7.36975 3.48145 7.21628C3.48145 7.0628 3.5311 6.93641 3.6304 6.83711C3.72971 6.7378 3.8561 6.68815 4.00957 6.68815C4.16304 6.68815 4.28943 6.7378 4.38874 6.83711L5.4179 7.86628Z" fill="#088269"/>
</g>
</svg>
