<svg width="17" height="17" viewBox="0 0 17 17" fill="none" xmlns="http://www.w3.org/2000/svg">
<g id="17/ phone">
<path id="Vector" d="M12.0952 15C6.52881 15 2 10.4712 2 4.90482C2.0021 3.95003 2.35086 3.02848 2.98142 2.31152C3.61198 1.59457 4.48145 1.13098 5.42815 1.00696C5.66949 0.980203 5.91307 1.03101 6.12358 1.15203C6.3341 1.27304 6.50059 1.45796 6.59891 1.67997L8.00803 4.96792C8.08113 5.13858 8.11043 5.3248 8.09329 5.50967C8.07615 5.69453 8.01311 5.87219 7.90989 6.02651L6.74614 7.80719C7.27311 8.87664 8.14141 9.74001 9.21385 10.2609L10.9735 9.09011C11.1276 8.9862 11.3058 8.9233 11.491 8.90735C11.6762 8.89141 11.8624 8.92294 12.0321 8.99898L15.32 10.4011C15.542 10.4994 15.727 10.6659 15.848 10.8764C15.969 11.0869 16.0198 11.3305 15.993 11.5718C15.869 12.5186 15.4054 13.388 14.6885 14.0186C13.9715 14.6491 13.05 14.9979 12.0952 15ZM5.56837 2.12164C4.89181 2.20861 4.27016 2.53919 3.81979 3.0515C3.36943 3.56381 3.12124 4.2227 3.12169 4.90482C3.12354 7.28417 4.06956 9.56553 5.75201 11.248C7.43447 12.9304 9.71583 13.8765 12.0952 13.8783C12.7773 13.8788 13.4362 13.6306 13.9485 13.1802C14.4608 12.7298 14.7914 12.1082 14.8784 11.4316L11.5904 10.0295L9.83778 11.2003C9.67652 11.3069 9.49044 11.37 9.2976 11.3835C9.10475 11.397 8.91168 11.3605 8.73713 11.2774C7.43103 10.6456 6.37453 9.59404 5.73662 8.29091C5.65251 8.11695 5.61477 7.92421 5.62705 7.73137C5.63934 7.53854 5.70123 7.35214 5.80672 7.19026L6.97748 5.40958L5.56837 2.12164Z" fill="#F8F7F3"/>
</g>
</svg>
