<svg width="24" height="24" viewBox="0 0 24 24" fill="none" xmlns="http://www.w3.org/2000/svg">
<g id="24/ arrow / right">
<path id="Vector" d="M5 12.0001C5 12.3364 5.23677 12.6143 5.54397 12.6583L5.62937 12.6643L16.6929 12.6638L12.696 16.865C12.4496 17.1239 12.4488 17.5445 12.694 17.8044C12.917 18.0408 13.2666 18.063 13.5134 17.8706L13.5841 17.8065L18.661 12.4712C18.6935 12.437 18.7217 12.4001 18.7456 12.3611C18.7524 12.3494 18.7593 12.3374 18.7658 12.3251C18.7718 12.3146 18.7772 12.3037 18.7823 12.2927C18.7894 12.2766 18.7964 12.2601 18.8027 12.2432C18.8078 12.2301 18.8121 12.2175 18.816 12.2047C18.8206 12.1888 18.8251 12.1719 18.829 12.1548C18.8319 12.1428 18.8342 12.1313 18.8361 12.1197C18.8389 12.1025 18.8413 12.0847 18.843 12.0667C18.8445 12.0529 18.8454 12.0393 18.8459 12.0257C18.846 12.0174 18.8462 12.0088 18.8462 12.0001L18.8458 11.9744C18.8454 11.9613 18.8445 11.9483 18.8433 11.9353L18.8462 12.0001C18.8462 11.9582 18.8425 11.9172 18.8354 11.8774C18.8338 11.8679 18.8319 11.8581 18.8297 11.8484C18.8252 11.8284 18.8201 11.8092 18.8141 11.7903C18.8112 11.7809 18.8078 11.7709 18.8042 11.761C18.7968 11.741 18.7888 11.7219 18.78 11.7034C18.7759 11.6946 18.7714 11.6855 18.7666 11.6765C18.7587 11.6617 18.7506 11.6477 18.742 11.634C18.736 11.6243 18.7293 11.6143 18.7223 11.6044L18.7169 11.5967C18.6999 11.5733 18.6815 11.5512 18.6618 11.5304L18.6611 11.5298L13.5841 6.19358C13.3378 5.93471 12.9394 5.93558 12.6941 6.19553C12.4711 6.43184 12.4515 6.80091 12.6348 7.06056L12.6959 7.13493L16.6912 11.3353L5.62937 11.3358C5.28178 11.3358 5 11.6332 5 12.0001Z" fill="#202020"/>
</g>
</svg>
