<svg width="13" height="14" viewBox="0 0 13 14" fill="none" xmlns="http://www.w3.org/2000/svg">
<g id="13/ sorting">
<path id="Line 4" d="M3.73648 10.7635C3.88202 10.9091 4.11798 10.9091 4.26352 10.7635L6.63523 8.39181C6.78077 8.24627 6.78077 8.01031 6.63523 7.86477C6.48969 7.71923 6.25373 7.71923 6.10819 7.86477L4 9.97295L1.89181 7.86477C1.74627 7.71923 1.51031 7.71923 1.36477 7.86477C1.21923 8.01031 1.21923 8.24627 1.36477 8.39181L3.73648 10.7635ZM3.62732 2.5L3.62732 10.5H4.37268L4.37268 2.5H3.62732Z" fill="#202020"/>
<path id="Line 5" d="M10.2635 2.23648C10.118 2.09094 9.88202 2.09094 9.73648 2.23648L7.36477 4.60819C7.21923 4.75373 7.21923 4.98969 7.36477 5.13523C7.51031 5.28077 7.74627 5.28077 7.89181 5.13523L10 3.02705L12.1082 5.13523C12.2537 5.28077 12.4897 5.28077 12.6352 5.13523C12.7808 4.98969 12.7808 4.75373 12.6352 4.60819L10.2635 2.23648ZM10.3727 10.5V2.5H9.62732V10.5H10.3727Z" fill="#202020"/>
</g>
</svg>
