<svg width="13" height="13" viewBox="0 0 13 13" fill="none" xmlns="http://www.w3.org/2000/svg">
<g id="13/ star" opacity="0.3">
<path id="Vector" d="M6.49999 0C6.79304 0 7.06338 0.146534 7.20748 0.38348L9.03017 3.38062L12.3416 3.97463C12.6324 4.02681 12.8696 4.22178 12.9606 4.4835C13.0517 4.74523 12.9822 5.03221 12.7791 5.23248L10.3753 7.60409L10.9828 11.2C11.0296 11.4773 10.9069 11.7557 10.6642 11.923C10.4215 12.0901 10.0989 12.1184 9.82674 11.9964L6.49999 10.5044L3.17321 11.9964C2.90108 12.1184 2.5785 12.0901 2.33579 11.923C2.09308 11.7557 1.97035 11.4773 2.01718 11.2L2.62464 7.60409L0.220855 5.23248C0.0178569 5.03221 -0.0516892 4.74523 0.039351 4.4835C0.130391 4.22178 0.367592 4.02681 0.658404 3.97463L3.96982 3.38062L5.79251 0.38348C5.93661 0.146534 6.20695 0 6.49999 0Z" fill="#7A7687"/>
</g>
</svg>
